<?xml version="1.0" standalone="no"?>
<!DOCTYPE svg PUBLIC "-//W3C//DTD SVG 20010904//EN"
 "http://www.w3.org/TR/2001/REC-SVG-20010904/DTD/svg10.dtd">
<svg version="1.0" xmlns="http://www.w3.org/2000/svg"
 width="1536.000000pt" height="1024.000000pt" viewBox="0 0 1536.000000 1024.000000"
 preserveAspectRatio="xMidYMid meet">

<g transform="translate(0.000000,1024.000000) scale(0.100000,-0.100000)"
fill="#000000" stroke="none">
<path d="M7295 8082 c-37 -75 -262 -553 -381 -810 -52 -112 -108 -230 -125
-264 -30 -59 -30 -60 -7 -53 81 26 539 183 543 187 6 5 8 989 2 994 -2 2 -16
-22 -32 -54z m-23 -850 l3 -62 -185 -64 c-163 -55 -232 -85 -250 -107 -6 -7
-46 -29 -55 -29 -3 0 2 12 11 26 17 25 33 35 152 93 60 29 235 91 258 91 26 0
54 42 54 82 0 62 8 42 12 -30z"/>
<path d="M7430 7636 l0 -503 228 -88 c125 -48 268 -104 317 -125 50 -21 92
-36 94 -34 7 6 -619 1254 -629 1254 -7 0 -10 -171 -10 -504z m68 -437 c-2 -6
21 -17 51 -25 30 -8 59 -18 65 -22 6 -5 31 -15 56 -22 25 -8 56 -21 70 -29 13
-9 25 -15 27 -14 3 3 20 -4 118 -47 28 -13 76 -49 110 -82 48 -48 54 -57 29
-44 -17 8 -37 22 -44 31 -26 31 -200 108 -432 190 -77 27 -90 39 -66 63 15 15
19 15 16 1z"/>
<path d="M7641 7975 c0 -5 129 -266 287 -579 l287 -569 175 -68 c96 -38 216
-85 265 -103 50 -19 99 -38 109 -42 34 -13 -193 268 -473 586 -114 129 -264
303 -333 385 -69 83 -140 164 -158 180 -17 17 -36 39 -42 50 -13 28 104 -97
225 -239 139 -163 175 -204 380 -436 98 -111 212 -245 254 -298 140 -178 186
-233 190 -228 9 9 -403 505 -562 676 -39 41 -133 149 -210 240 -76 91 -177
208 -224 260 -48 52 -105 118 -128 145 -24 28 -43 46 -42 40z m152 -225 c14
-22 24 -40 22 -40 -7 0 -46 44 -56 63 -19 34 8 16 34 -23z m157 -274 c0 -7 9
-21 19 -30 22 -20 45 -76 32 -76 -5 0 -14 15 -21 33 -8 17 -19 39 -25 47 -17
21 -27 52 -15 45 6 -3 10 -12 10 -19z m91 -161 c12 -25 26 -45 30 -45 3 0 9
-12 12 -27 3 -16 15 -38 27 -51 12 -13 19 -26 16 -29 -3 -4 5 -21 19 -38 13
-18 21 -35 18 -39 -4 -3 -1 -6 5 -6 6 0 13 -13 17 -30 4 -16 10 -30 15 -30 5
0 11 -13 15 -30 4 -16 11 -32 16 -35 5 -4 9 -14 9 -23 0 -10 10 -24 23 -32 25
-16 127 -60 127 -54 0 2 17 -5 38 -16 20 -10 62 -30 92 -43 30 -14 73 -41 95
-60 22 -20 43 -33 47 -31 4 3 8 0 8 -6 0 -7 6 -10 13 -7 11 4 51 -32 44 -40
-9 -8 -81 31 -108 58 -16 16 -29 28 -29 25 0 -3 -48 16 -107 43 -60 26 -138
58 -176 72 -60 21 -68 28 -78 59 -12 37 -148 313 -193 390 -24 41 -33 70 -22
70 3 0 15 -20 27 -45z"/>
<path d="M6999 7818 c-167 -190 -184 -209 -405 -447 -98 -106 -208 -225 -243
-265 -35 -39 -133 -148 -217 -241 -151 -168 -213 -242 -168 -202 12 9 26 17
33 17 7 0 10 4 7 9 -3 5 45 64 107 132 61 67 162 179 223 248 61 70 129 142
149 161 21 19 -22 -33 -96 -116 -209 -234 -259 -293 -308 -353 -25 -31 -50
-59 -56 -63 -19 -14 3 -8 102 26 54 19 188 65 298 103 l200 69 35 70 c19 39
111 233 205 430 93 197 193 406 222 463 29 58 51 106 50 108 -2 1 -64 -66
-138 -149z m54 17 c-3 -9 -8 -14 -10 -11 -3 3 -2 9 2 15 9 16 15 13 8 -4z
m-23 -46 c-7 -11 -14 -18 -17 -15 -3 3 0 12 7 21 18 21 23 19 10 -6z m-276
-527 c-149 -304 -159 -321 -193 -335 -84 -35 -140 -56 -206 -77 -38 -13 -87
-31 -107 -41 -56 -28 -67 -23 -22 11 21 16 47 30 57 30 9 0 17 5 17 10 0 6 8
10 18 10 10 0 35 9 57 20 21 11 40 18 42 16 8 -8 123 43 157 69 19 15 40 42
46 61 7 19 29 66 51 105 21 40 39 74 39 77 0 14 143 292 180 349 41 64 6 -15
-136 -305z m-644 -524 c-40 -32 -59 -20 -20 13 22 18 36 25 39 17 2 -6 -6 -20
-19 -30z"/>
<path d="M6987 6921 l-288 -96 -168 -330 c-92 -182 -188 -366 -212 -410 -50
-88 -62 -115 -51 -115 4 0 34 5 67 10 33 6 188 30 345 55 344 55 326 51 333
72 55 196 153 517 210 691 41 122 69 222 63 221 -6 0 -141 -44 -299 -98z m188
-91 c-3 -5 -8 -18 -10 -27 -5 -21 -83 -239 -96 -268 -18 -41 3 47 31 128 51
149 62 177 72 177 5 0 6 -4 3 -10z m-155 -490 c0 -5 -5 -10 -11 -10 -5 0 -7 5
-4 10 3 6 8 10 11 10 2 0 4 -4 4 -10z m-10 -45 c0 -8 -4 -15 -10 -15 -5 0 -7
7 -4 15 4 8 8 15 10 15 2 0 4 -7 4 -15z m-27 -112 c-3 -21 -7 -39 -7 -40 -1
-1 -65 -11 -142 -23 -194 -28 -260 -38 -367 -55 -113 -18 -112 -18 -97 0 7 8
18 14 24 13 6 -1 25 1 41 5 62 15 85 19 285 48 113 16 212 32 221 34 9 3 22
17 29 30 18 33 20 32 13 -12z m-659 -177 c-3 -8 -14 -16 -25 -19 -19 -5 -18 2
4 30 12 16 28 7 21 -11z"/>
<path d="M7492 6992 c7 -17 305 -576 397 -744 53 -97 102 -180 109 -183 7 -2
120 -23 250 -44 130 -22 252 -43 271 -47 19 -4 32 -3 30 2 -2 5 -89 180 -192
389 l-188 380 -192 74 c-189 73 -479 181 -485 181 -2 0 -2 -4 0 -8z m208 -242
c0 -5 -2 -10 -4 -10 -3 0 -8 5 -11 10 -3 6 -1 10 4 10 6 0 11 -4 11 -10z m26
-57 c10 -21 25 -49 35 -63 9 -14 36 -61 59 -105 24 -44 49 -87 56 -96 8 -8 14
-23 14 -32 0 -9 4 -17 9 -17 5 0 19 -25 32 -55 12 -30 27 -55 31 -55 5 0 7 -4
4 -9 -3 -5 1 -14 9 -21 8 -6 19 -26 24 -43 6 -18 20 -38 31 -45 11 -7 82 -24
158 -38 162 -30 273 -57 251 -61 -13 -3 -114 13 -394 62 -27 5 -35 16 -72 95
-23 50 -41 92 -41 93 0 1 -17 31 -39 67 -49 81 -193 344 -193 353 0 16 10 4
26 -30z m789 -693 c3 -5 -1 -10 -9 -10 -8 0 -18 5 -21 10 -3 6 1 10 9 10 8 0
18 -4 21 -10z"/>
<path d="M7008 6973 c7 -3 16 -2 19 1 4 3 -2 6 -13 5 -11 0 -14 -3 -6 -6z"/>
<path d="M7317 6778 c-36 -112 -84 -264 -106 -338 -22 -74 -53 -182 -70 -239
-17 -57 -29 -106 -27 -108 9 -9 756 -16 756 -7 0 5 -34 70 -76 144 -42 74
-134 245 -204 380 -183 349 -194 370 -202 370 -3 0 -36 -91 -71 -202z m442
-623 c7 -7 -85 -10 -275 -11 -156 -1 -284 2 -284 7 0 12 39 14 302 14 151 0
251 -4 257 -10z m-594 -35 c3 -5 -3 -10 -15 -10 -12 0 -18 5 -15 10 3 6 10 10
15 10 5 0 12 -4 15 -10z"/>
<path d="M6900 6940 c-13 -9 -13 -10 0 -10 8 0 22 5 30 10 13 9 13 10 0 10 -8
0 -22 -5 -30 -10z"/>
<path d="M6835 6919 c-45 -21 -38 -25 12 -7 18 7 33 16 33 20 0 4 -1 8 -2 7
-2 0 -21 -9 -43 -20z"/>
<path d="M6412 6774 c-90 -30 -169 -57 -175 -61 -7 -4 -18 -8 -25 -9 -27 -5
-112 -38 -112 -45 0 -8 64 11 230 69 63 22 144 50 180 62 69 24 76 28 69 34
-2 2 -78 -20 -167 -50z"/>
<path d="M7526 6777 c3 -10 9 -15 12 -12 3 3 0 11 -7 18 -10 9 -11 8 -5 -6z"/>
<path d="M6395 6719 c-93 -33 -243 -84 -332 -115 -90 -31 -163 -61 -163 -68 0
-19 263 -535 271 -530 14 8 404 763 398 768 -2 2 -80 -23 -174 -55z m-118
-408 c-83 -164 -95 -194 -91 -227 5 -38 -8 -75 -21 -62 -4 4 -9 27 -11 52 -3
26 -22 91 -43 146 -21 55 -35 100 -30 100 5 0 9 -4 9 -10 0 -25 64 -150 77
-150 8 0 11 5 8 10 -3 6 1 10 9 10 8 0 20 16 27 35 7 19 16 35 21 35 4 0 10
16 14 35 3 19 10 35 14 35 4 0 15 18 25 40 10 22 22 40 27 40 4 0 7 3 6 8 -3
12 43 105 49 98 3 -3 -37 -90 -90 -195z m-207 38 c6 -10 7 -19 2 -19 -5 0 -14
12 -20 26 -14 29 2 24 18 -7z"/>
<path d="M7591 6648 c28 -56 109 -210 180 -340 71 -130 129 -241 129 -247 0
-13 -579 -14 -720 -2 -48 4 -88 3 -91 -2 -3 -5 -9 -1 -13 9 -4 10 -4 15 0 11
8 -8 11 2 67 213 20 74 43 156 51 183 8 28 10 47 4 47 -5 0 -12 -9 -15 -20 -3
-11 -10 -20 -15 -20 -6 0 -7 11 -3 27 15 61 -7 11 -30 -68 -29 -98 -30 -110
-10 -83 10 13 8 0 -6 -45 -16 -46 -24 -59 -31 -50 -7 10 -8 6 -5 -13 2 -15 0
-25 -4 -22 -5 3 -9 0 -9 -6 0 -7 -10 -43 -21 -82 -16 -51 -27 -72 -43 -78 -36
-13 -655 -113 -718 -116 -31 -1 -62 -5 -67 -9 -17 -10 -14 -1 26 67 87 151
263 491 331 640 2 3 -5 4 -15 1 -11 -3 -46 -60 -91 -151 -120 -241 -174 -342
-183 -336 -5 3 -6 -2 -3 -10 7 -18 -14 -59 -26 -51 -6 4 -7 -1 -3 -11 4 -12 3
-15 -5 -10 -7 4 -10 2 -7 -6 3 -8 -1 -22 -10 -33 -15 -20 -15 -20 -9 0 4 15 4
17 -4 6 -6 -8 -8 -19 -6 -26 3 -6 -2 -18 -11 -25 -8 -7 -15 -23 -15 -37 0 -23
-1 -24 -17 -7 -10 9 -25 31 -33 48 -28 58 -102 186 -106 186 -3 0 -2 -4 1 -10
3 -5 2 -10 -4 -10 -5 0 -21 24 -36 53 -14 28 -34 66 -45 82 -10 17 -28 50 -40
74 -11 24 -22 42 -25 40 -3 -4 61 -136 175 -359 37 -72 40 -79 40 -99 0 -11
-4 -22 -9 -26 -5 -3 -114 -24 -243 -46 -522 -92 -615 -99 -573 -43 8 10 15 14
15 9 0 -14 39 -10 240 25 151 27 374 63 460 76 95 13 105 20 76 53 -7 9 -67
121 -131 249 -65 128 -121 230 -125 225 -4 -4 -65 -80 -136 -168 -186 -232
-376 -457 -381 -452 -2 3 94 123 214 267 120 144 222 269 226 278 11 22 -6 2
-188 -215 -82 -98 -189 -224 -237 -281 -49 -56 -88 -109 -88 -118 0 -34 30
-72 62 -80 18 -4 36 -7 40 -6 4 1 5 -5 2 -13 -4 -8 -2 -15 4 -15 6 0 23 -13
39 -28 15 -15 96 -86 178 -157 255 -219 708 -630 1234 -1119 130 -120 249
-231 265 -245 l28 -26 -21 35 c-11 19 -24 33 -27 32 -8 -5 -64 49 -64 62 0 5
14 -3 31 -20 l31 -29 -30 50 c-30 51 -137 218 -410 640 -194 298 -265 415
-258 422 3 3 22 -21 42 -53 54 -86 166 -260 384 -599 106 -165 228 -357 271
-428 134 -217 130 -215 -277 158 -108 99 -245 223 -304 275 -59 52 -180 163
-269 245 -90 83 -213 195 -275 249 -153 136 -435 388 -520 465 -39 35 -74 71
-78 80 -5 11 -7 12 -7 2 -1 -11 -4 -11 -18 0 -34 27 25 -46 74 -93 92 -87 208
-201 178 -176 -16 14 -45 38 -64 54 -69 58 -149 133 -238 222 -50 50 -93 88
-97 85 -18 -19 5 -51 107 -149 62 -60 189 -176 282 -259 183 -161 356 -317
695 -625 118 -107 284 -258 370 -334 232 -208 340 -308 481 -443 70 -68 132
-123 137 -123 17 0 74 -62 65 -71 -5 -5 -651 -12 -1539 -15 -841 -4 -1533 -10
-1537 -14 -10 -9 -17 -160 -20 -393 -1 -92 -5 -159 -9 -150 -4 11 -7 3 -7 -22
0 -31 2 -36 9 -20 7 16 9 11 9 -20 0 -31 -2 -35 -9 -20 -5 11 -9 -177 -9 -431
-1 -533 -11 -492 114 -504 129 -12 6278 -13 6324 0 22 6 50 19 63 29 l23 19 3
746 c1 482 -1 758 -8 779 -7 22 -8 -207 -4 -720 6 -844 10 -797 -66 -827 -38
-15 -197 -16 -1923 -14 -1035 2 -2415 5 -3067 8 -652 4 176 4 1840 2 1664 -3
3051 -2 3084 2 43 6 65 15 83 32 l25 25 -6 497 c-13 964 -13 965 -33 979 -13
10 -332 13 -1557 15 -848 1 -1552 3 -1566 4 -14 1 -28 3 -33 3 -4 1 0 12 9 26
l16 25 1391 0 c765 0 1387 3 1383 7 -3 4 -609 6 -1346 4 -942 -1 -1340 1
-1340 9 0 7 -7 6 -20 -2 -32 -20 -37 2 -5 25 17 12 57 47 90 77 33 30 107 96
165 145 58 49 170 148 250 219 80 71 237 211 349 310 303 269 394 350 646 580
127 115 296 267 377 338 152 133 228 211 228 234 0 8 -3 14 -6 14 -8 0 -66
-53 -199 -179 -49 -48 -151 -140 -225 -206 -74 -66 -184 -165 -245 -220 -60
-56 -191 -173 -290 -260 -99 -87 -276 -245 -394 -349 -401 -357 -490 -435
-601 -523 -41 -33 -88 -75 -105 -93 -16 -17 -39 -36 -50 -42 -33 -17 96 111
151 150 66 47 289 236 306 260 7 10 22 25 34 33 12 7 65 55 120 104 143 131
211 192 294 265 41 36 85 75 98 87 13 12 81 73 150 135 69 62 165 149 212 193
48 44 140 127 206 185 187 164 335 303 329 308 -5 6 -43 -27 -295 -253 -127
-114 -198 -175 -245 -210 -54 -40 -80 -64 -56 -50 9 5 12 4 7 -3 -4 -7 -13
-12 -19 -12 -7 0 -30 -17 -52 -37 -22 -19 -59 -51 -82 -70 -24 -20 -40 -40
-36 -46 3 -5 2 -7 -4 -4 -5 3 -36 -19 -69 -49 -32 -31 -53 -52 -45 -48 9 5 12
3 7 -4 -4 -7 -12 -12 -18 -12 -6 0 -20 -9 -32 -20 -75 -70 -92 -84 -98 -83 -3
2 -23 -17 -44 -40 -21 -23 -40 -41 -42 -39 -1 2 -35 -26 -75 -61 -148 -133
-357 -315 -453 -395 -54 -46 -109 -92 -121 -103 -20 -18 -23 -19 -23 -4 0 24
8 37 193 320 214 326 639 902 681 924 11 6 140 55 286 110 276 103 410 157
419 168 8 8 -27 -2 -71 -21 -52 -22 -48 -11 4 14 25 12 54 18 68 15 14 -2 36
2 50 10 14 8 19 14 12 15 -7 0 0 13 17 29 l29 28 -76 7 c-41 3 -156 6 -256 6
l-181 0 -65 -81 c-36 -44 -84 -103 -107 -131 -23 -29 -41 -53 -39 -55 2 -3
433 163 575 222 35 14 72 25 84 23 22 -3 -193 -96 -468 -202 -176 -67 -225
-83 -225 -71 0 14 25 53 72 108 26 33 45 64 41 69 -3 7 -1 8 5 4 11 -6 109
109 105 123 -1 4 73 6 165 5 114 -1 147 0 104 6 -34 4 -65 9 -68 12 -3 3 -21
2 -41 -2 -25 -6 -32 -5 -25 2 6 6 51 11 104 11 84 0 88 0 38 7 -30 5 -120 8
-199 9 -79 1 -141 4 -138 7 3 4 -5 26 -19 50 -29 49 -24 69 13 59 41 -10 247
-34 255 -29 3 2 9 0 12 -5 4 -5 14 -8 24 -6 9 1 26 -2 37 -8 30 -16 158 -35
181 -26 18 6 17 8 -6 17 -17 6 -27 6 -31 -1 -4 -6 -22 -7 -45 -3 -24 5 -33 10
-25 15 7 5 -47 18 -126 31 -123 21 -158 26 -213 30 -8 0 -23 12 -33 25 -14 19
-15 29 -7 45 6 11 8 20 6 20 -3 0 -12 -13 -21 -29 -14 -28 -14 -30 5 -36 31
-10 23 -22 -15 -23 -20 -1 -40 -4 -45 -7 -5 -3 -11 -1 -15 5 -3 5 0 10 8 10 8
0 20 14 26 30 5 17 15 30 20 30 6 0 10 11 9 25 -1 14 -3 25 -4 25 -6 0 -49
-76 -46 -82 1 -5 -5 -8 -13 -8 -8 0 -15 7 -15 15 0 8 -5 15 -11 15 -6 0 -8 7
-5 17 5 11 -2 24 -19 39 -15 12 -26 24 -25 26 4 11 -14 38 -27 38 -7 0 -13 6
-12 13 3 28 -2 48 -11 42 -6 -4 -7 1 -3 11 5 14 3 16 -11 11 -12 -5 -15 -3 -9
5 13 22 10 53 -6 65 -9 6 -19 9 -23 7 -4 -3 -5 2 -2 10 3 8 -3 19 -15 26 -12
6 -21 15 -21 21 0 6 5 7 12 3 7 -4 8 -3 4 5 -4 6 -11 9 -16 6 -4 -3 -6 4 -3
15 3 12 -1 22 -11 26 -8 3 -30 31 -47 61 -50 87 -42 56 14 -57 29 -58 72 -147
95 -198 24 -51 56 -114 73 -140 44 -69 31 -75 -106 -51 -60 11 -162 28 -225
38 -175 29 -280 53 -273 64 3 5 -5 19 -18 29 -13 11 -18 16 -10 12 9 -4 12 -2
9 7 -3 8 -10 13 -16 12 -5 -1 -13 4 -16 13 -3 8 -2 12 4 9 18 -11 11 7 -27 71
-20 35 -41 60 -47 57 -6 -4 -6 -8 2 -11 7 -2 10 -8 7 -13 -3 -4 1 -22 10 -39
8 -16 13 -30 10 -30 -3 0 -16 23 -29 50 -13 28 -21 48 -16 45 4 -3 10 1 13 9
4 10 0 12 -14 9 -15 -4 -18 -2 -13 11 3 9 10 13 16 10 5 -3 -3 17 -17 45 -29
55 -36 63 -28 30 4 -16 2 -20 -8 -17 -8 2 -15 15 -17 29 -2 13 -10 29 -19 36
-8 7 -12 17 -7 24 4 8 3 10 -4 5 -7 -4 -12 -1 -12 9 0 9 -5 13 -11 9 -8 -4 -9
1 -4 17 3 14 3 19 -2 12 -5 -7 -32 34 -73 114 -36 69 -69 127 -73 130 -4 3 15
-42 44 -99z m-434 -230 c-3 -8 -6 -5 -6 6 -1 11 2 17 5 13 3 -3 4 -12 1 -19z
m645 -110 c-7 -7 -14 -3 -22 11 -16 30 -2 48 17 21 11 -15 12 -25 5 -32z m698
-119 c0 -6 -4 -7 -10 -4 -5 3 -10 11 -10 16 0 6 5 7 10 4 6 -3 10 -11 10 -16z
m-607 -46 c-3 -7 -6 -13 -8 -13 -2 0 -5 6 -8 13 -3 8 1 14 8 14 7 0 11 -6 8
-14z m675 -108 c-3 -3 -9 2 -12 12 -6 14 -5 15 5 6 7 -7 10 -15 7 -18z m-2578
-26 c0 -11 -25 -16 -110 -24 -75 -7 -154 -19 -295 -46 -128 -24 -177 -38 -170
-48 6 -11 -15 -28 -35 -29 -8 0 -26 -4 -40 -8 l-25 -7 20 24 c62 73 65 75 76
56 9 -15 13 -16 22 -5 15 17 68 36 122 43 22 2 76 11 120 19 44 8 107 18 140
22 33 3 78 9 100 13 44 8 75 4 75 -10z m1077 -99 c37 -110 41 -146 16 -154
-24 -7 -902 -4 -930 3 -23 6 -22 7 15 60 20 30 44 57 52 62 8 4 112 22 230 40
118 18 287 45 375 60 88 15 171 27 185 26 22 -2 28 -12 57 -97z m696 92 c74
-3 97 -7 97 -17 0 -11 -96 -222 -103 -226 -9 -5 -476 -9 -523 -4 l-60 6 -33
107 c-19 59 -36 115 -39 125 -4 17 10 18 279 15 156 -1 328 -4 382 -6z m323
-36 c71 -14 215 -39 319 -56 105 -17 190 -32 191 -33 0 -1 15 -24 32 -50 18
-26 32 -52 32 -58 0 -5 -123 -10 -312 -11 -489 -4 -516 -3 -522 3 -9 9 105
229 119 229 7 0 70 -11 141 -24z m-2026 10 c0 -3 -4 -8 -10 -11 -5 -3 -10 -1
-10 4 0 6 5 11 10 11 6 0 10 -2 10 -4z m60 -111 c0 -9 -11 -38 -25 -65 l-25
-50 -173 -2 c-397 -5 -413 -4 -401 26 4 10 16 13 47 9 23 -4 147 -6 275 -7
l233 -1 19 25 c10 14 21 33 24 44 4 16 0 17 -37 12 -84 -11 -202 -19 -195 -12
5 6 177 31 241 35 9 1 17 -6 17 -14z m-335 -40 c-33 -8 -79 -19 -103 -24 -23
-6 -64 -11 -90 -10 -38 1 -28 4 55 19 56 10 110 20 120 23 10 3 32 5 48 5 18
0 6 -5 -30 -13z m3093 -92 c-16 -2 -40 -2 -55 0 -16 2 -3 4 27 4 30 0 43 -2
28 -4z m-180 -44 c1 -9 -50 -79 -115 -156 -65 -77 -130 -156 -144 -175 -18
-22 -42 -39 -70 -47 -24 -7 -116 -41 -204 -76 -88 -34 -182 -70 -210 -79 -27
-10 -92 -34 -145 -55 -188 -76 -312 -121 -332 -121 -18 0 -19 4 -13 38 6 36
287 599 326 653 11 15 29 29 42 31 12 2 211 3 442 3 377 0 420 -2 423 -16z
m-2632 -31 c15 -24 53 -77 84 -118 69 -91 113 -160 107 -167 -3 -2 -18 2 -34
10 -15 8 -91 38 -168 66 -361 134 -525 203 -525 220 0 6 10 13 23 15 12 3 31
7 42 9 11 3 116 5 232 6 l213 1 26 -42z m1085 -44 c50 -151 163 -624 152 -635
-7 -7 -52 7 -139 42 -71 28 -196 77 -279 109 -82 32 -232 92 -333 133 -180 74
-183 75 -220 126 -20 29 -70 94 -109 144 -75 94 -105 145 -97 159 3 5 229 7
502 6 l497 -3 26 -81z m569 71 c0 -22 -296 -609 -315 -625 -22 -18 -29 -8 -59
87 -26 83 -128 461 -141 521 l-7 32 261 0 c227 0 261 -2 261 -15z m-2095 -120
c94 -36 244 -93 335 -126 237 -88 321 -121 317 -125 -5 -5 -150 47 -527 186
-151 56 -294 109 -317 117 -24 8 -43 19 -43 23 0 12 46 -2 235 -75z m3075 51
c0 -3 -4 -8 -10 -11 -5 -3 -10 -1 -10 4 0 6 5 11 10 11 6 0 10 -2 10 -4z m-50
-60 c0 -2 -8 -10 -17 -17 -16 -13 -17 -12 -4 4 13 16 21 21 21 13z m40 -55 c0
-11 -40 -41 -54 -41 -5 0 1 11 14 25 24 26 40 32 40 16z m-2990 -231 c8 -8 58
-53 110 -100 52 -47 100 -89 106 -95 6 -5 44 -39 85 -75 40 -36 109 -99 153
-140 108 -103 106 -101 106 -106 0 -3 -90 77 -201 178 -110 101 -262 237 -337
304 -144 127 -213 198 -102 104 36 -30 72 -62 80 -70z m195 -10 c3 -6 -1 -7
-9 -4 -18 7 -21 14 -7 14 6 0 13 -4 16 -10z m592 -21 c54 -24 289 -120 591
-240 111 -45 201 -84 198 -86 -5 -5 -295 107 -618 240 -115 47 -208 83 -208
81 0 -2 16 -26 36 -54 20 -27 79 -119 133 -202 309 -486 693 -1055 700 -1036
2 7 -1 14 -8 16 -15 5 -53 80 -46 92 3 5 1 11 -4 14 -5 3 -12 18 -15 32 -4 14
-29 59 -56 99 -28 40 -50 77 -50 83 0 6 -3 12 -7 14 -14 6 -54 68 -44 68 5 0
33 -37 62 -82 29 -46 60 -90 69 -98 9 -8 15 -21 12 -29 -3 -8 0 -11 7 -7 6 4
11 1 11 -6 0 -8 10 -26 23 -41 12 -16 27 -47 34 -70 9 -33 11 51 12 412 1 336
4 452 12 444 8 -8 10 -142 6 -485 -5 -442 -11 -552 -31 -519 -4 7 -6 15 -3 17
3 3 -30 56 -74 117 -123 174 -344 508 -549 827 -51 80 -125 195 -164 255 -76
117 -101 165 -87 165 5 0 31 -10 58 -21z m1863 1 c0 -5 -60 -89 -133 -187 -74
-98 -181 -248 -238 -333 -98 -147 -240 -350 -354 -505 -28 -38 -82 -115 -120
-170 -38 -55 -70 -102 -72 -104 -19 -25 -23 63 -25 478 -2 449 -1 463 18 475
23 13 156 65 494 192 140 53 285 109 323 125 37 15 67 24 67 19 0 -9 -226 -99
-640 -255 -129 -49 -237 -90 -240 -93 -8 -6 -6 -872 2 -872 4 0 5 -8 2 -17 -3
-10 9 4 27 32 18 27 60 88 94 135 232 319 334 463 406 572 96 145 122 182 250
348 53 69 101 135 108 148 12 22 31 30 31 12z m-2369 -57 c8 -9 35 -33 61 -54
26 -20 44 -39 41 -43 -4 -3 -1 -6 6 -6 14 0 57 -38 50 -45 -3 -3 -30 17 -60
44 -30 27 -72 65 -94 85 -22 19 -35 36 -29 36 6 0 18 -7 25 -17z m2159 3 c0
-2 -7 -7 -16 -10 -8 -3 -12 -2 -9 4 6 10 25 14 25 6z m-1958 -181 c2 3 17 -9
33 -25 16 -17 24 -30 19 -30 -15 0 -84 60 -84 73 0 7 7 4 14 -5 7 -10 15 -16
18 -13z m1859 -68 l-23 -22 17 28 c10 15 20 25 23 22 3 -3 -5 -16 -17 -28z
m-1736 -56 c-3 -3 -18 8 -33 23 l-27 29 32 -23 c18 -13 30 -26 28 -29z m37
-31 c7 -11 16 -20 20 -20 3 0 42 -35 86 -77 44 -43 86 -83 93 -90 25 -22 40
-43 30 -43 -5 0 -67 56 -137 125 -71 69 -123 125 -116 125 6 0 17 -9 24 -20z
m1608 -45 c-17 -25 -33 -45 -35 -45 -8 0 50 89 58 90 4 0 -6 -20 -23 -45z
m-1146 -5 c-6 -5 -24 21 -24 34 0 6 6 1 14 -10 8 -10 12 -21 10 -24z m26 -31
c0 -6 -4 -7 -10 -4 -5 3 -10 11 -10 16 0 6 5 7 10 4 6 -3 10 -11 10 -16z m21
-36 c13 -16 12 -17 -3 -4 -10 7 -18 15 -18 17 0 8 8 3 21 -13z m983 -104 c-95
-142 -215 -301 -221 -295 -5 5 28 55 57 88 8 9 31 40 50 68 19 29 45 65 58 80
12 15 22 33 22 39 0 6 3 11 8 11 4 0 16 17 27 37 21 40 66 96 72 89 2 -2 -31
-55 -73 -117z m-959 71 c3 -5 1 -10 -4 -10 -6 0 -11 5 -11 10 0 6 2 10 4 10 3
0 8 -4 11 -10z m-477 -68 c8 -7 12 -15 10 -17 -2 -3 -20 12 -39 32 -30 33 -13
24 29 -15z m503 26 c11 -21 11 -22 -4 -9 -10 7 -17 17 -17 22 0 15 9 10 21
-13z m58 -84 c20 -24 41 -74 31 -74 -5 0 -10 5 -10 10 0 6 -16 33 -35 60 -37
53 -48 82 -15 40 11 -14 24 -30 29 -36z m-334 6 c16 -17 16 -20 3 -15 -9 4
-19 13 -22 21 -7 19 -2 18 19 -6z m-84 -77 l24 -28 -30 25 c-16 14 -32 26 -34
28 -2 1 0 2 6 2 5 0 20 -12 34 -27z m284 -132 c-3 -2 -29 20 -58 50 -93 97
-104 116 -20 35 46 -44 80 -82 78 -85z m206 92 c21 -43 22 -50 4 -28 -25 30
-37 55 -27 55 5 0 15 -12 23 -27z m43 -69 c10 -25 -1 -29 -14 -5 -6 12 -7 21
-1 21 5 0 12 -7 15 -16z m-399 -14 c10 -11 16 -20 13 -20 -3 0 -13 9 -23 20
-10 11 -16 20 -13 20 3 0 13 -9 23 -20z m892 -122 c-9 -13 -33 -51 -54 -85
-20 -35 -41 -63 -45 -63 -16 0 -6 26 22 60 17 19 30 38 30 43 0 9 51 67 59 67
2 0 -4 -10 -12 -22z m-742 -9 c11 -17 -1 -21 -15 -4 -8 9 -8 15 -2 15 6 0 14
-5 17 -11z m51 -51 l29 -33 -32 29 c-18 17 -33 31 -33 33 0 8 8 1 36 -29z
m155 -134 c60 -53 109 -98 109 -101 0 -7 -10 1 -120 97 -115 100 -115 100
-106 100 4 0 57 -43 117 -96z m420 -24 c-9 -23 -10 -23 -10 11 -1 20 2 39 7
43 11 12 14 -27 3 -54z m-11 -114 c0 -11 -19 -15 -25 -6 -3 5 1 10 9 10 9 0
16 -2 16 -4z m725 -196 c-3 -5 -25 -9 -48 -8 l-42 1 45 7 c25 4 46 8 48 8 2 1
0 -2 -3 -8z m1495 -1 c426 -2 724 -5 663 -6 -62 -2 -113 -8 -113 -13 0 -10
363 -6 379 4 5 3 11 -4 14 -17 3 -12 6 -301 6 -642 1 -341 2 -660 4 -708 2
-75 0 -91 -16 -105 -18 -16 -224 -17 -3176 -16 -1736 0 -3168 4 -3183 7 -21 6
-29 15 -34 45 -7 32 -9 625 -5 1257 l1 190 73 -6 c39 -3 446 -5 902 -5 l830 0
-750 6 c-693 6 -678 6 205 3 525 -2 1747 -4 2715 -6 968 -2 1375 -1 905 2
-470 3 -839 8 -820 11 19 3 168 4 330 3 162 0 644 -3 1070 -4z m-2577 -6 c-7
-2 -19 -2 -25 0 -7 3 -2 5 12 5 14 0 19 -2 13 -5z m735 0 c-16 -2 -40 -2 -55
0 -16 2 -3 4 27 4 30 0 43 -2 28 -4z m160 0 c-10 -2 -28 -2 -40 0 -13 2 -5 4
17 4 22 1 32 -1 23 -4z m-3585 -1520 c-7 -2 -19 -2 -25 0 -7 3 -2 5 12 5 14 0
19 -2 13 -5z"/>
<path d="M6775 5954 c-110 -18 -281 -46 -379 -61 l-180 -28 -27 -47 -27 -46
461 5 c254 3 463 6 463 7 1 0 -12 47 -29 104 -29 95 -33 102 -57 101 -14 -1
-115 -16 -225 -35z m-525 -150 c0 -7 -53 -25 -58 -20 -11 11 20 34 38 29 11
-3 20 -7 20 -9z"/>
<path d="M7124 5985 c3 -5 19 -54 37 -107 l33 -98 273 0 273 0 50 100 c27 55
50 101 50 102 0 2 -57 2 -127 0 -71 -1 -233 1 -361 5 -154 5 -231 5 -228 -2z
m591 -135 c-3 -5 -12 -10 -18 -10 -7 0 -6 4 3 10 19 12 23 12 15 0z"/>
<path d="M7900 5883 c-24 -49 -46 -92 -48 -96 -2 -4 172 -7 387 -5 215 1 391
4 391 5 0 6 -43 73 -47 73 -12 0 -481 82 -543 95 -39 8 -77 15 -84 15 -7 0
-32 -39 -56 -87z m10 -52 c0 -12 -31 -43 -37 -37 -6 6 20 46 29 46 5 0 8 -4 8
-9z"/>
<path d="M8658 5695 c-2 -3 -192 -5 -420 -5 -313 -1 -419 -4 -426 -13 -35 -44
-342 -667 -328 -667 16 0 590 213 838 311 l77 31 133 160 c73 88 137 166 141
174 7 13 -4 20 -15 9z m-232 -229 c-50 -57 -65 -67 -139 -95 -45 -17 -163 -62
-262 -99 -362 -139 -398 -152 -409 -152 -7 0 -31 -14 -54 -31 -42 -31 -48 -30
-32 6 5 12 9 14 9 6 1 -12 4 -11 19 1 15 14 198 96 227 103 5 1 17 5 25 8 8 3
38 13 65 23 28 10 55 20 60 24 6 4 46 20 90 35 44 16 86 33 93 38 6 5 12 6 12
3 0 -4 10 -1 23 6 24 14 139 56 175 65 12 3 50 34 85 68 34 35 64 62 66 59 2
-2 -22 -32 -53 -68z"/>
<path d="M5730 5683 c-194 -5 -196 -2 120 -128 331 -131 351 -138 298 -101
-43 30 -47 36 -18 29 11 -3 20 -9 20 -13 0 -4 9 -10 20 -13 11 -3 20 -12 20
-20 0 -8 7 -17 15 -21 22 -8 10 13 -84 139 -44 60 -82 113 -84 119 -4 11 -83
13 -307 9z"/>
<path d="M6243 5682 c-51 -1 -93 -6 -93 -10 0 -4 54 -77 119 -162 l118 -155
159 -64 c522 -209 736 -292 740 -288 4 4 -104 438 -153 617 l-18 65 -390 0
c-215 0 -432 -1 -482 -3z m255 -280 c34 -17 62 -28 62 -26 0 2 21 -6 48 -20
26 -13 58 -27 72 -31 14 -4 41 -14 60 -22 19 -8 49 -21 65 -28 35 -14 100 -43
168 -73 26 -12 52 -22 57 -22 5 0 33 -11 62 -24 29 -13 67 -29 83 -36 21 -9
25 -15 14 -17 -9 -2 -45 9 -80 25 -35 16 -80 35 -99 42 -30 11 -409 166 -465
190 -11 5 -45 19 -75 32 -54 22 -69 34 -92 73 -9 16 -5 15 24 -7 19 -15 63
-40 96 -56z m767 -363 c4 -6 5 -12 2 -15 -7 -7 -37 7 -37 17 0 13 27 11 35 -2z"/>
<path d="M7319 5682 l-96 -3 33 -127 c19 -70 57 -208 86 -306 l52 -179 153
307 c84 169 153 308 153 309 0 4 -257 3 -381 -1z m208 -237 c0 -8 -4 -15 -9
-15 -10 0 -11 14 -1 23 9 10 10 9 10 -8z m-23 -50 c-9 -14 -20 -25 -26 -25
-11 0 23 49 35 50 4 0 0 -11 -9 -25z m-47 -100 c-15 -30 -28 -75 -31 -98 -3
-24 -11 -57 -17 -73 l-12 -29 -8 35 c-12 52 0 128 21 135 10 3 28 26 40 51 11
26 24 44 27 41 3 -3 -6 -31 -20 -62z"/>
<path d="M9955 3715 c22 -8 239 -12 220 -4 -11 4 -67 8 -125 8 -58 -1 -100 -2
-95 -4z"/>
<path d="M7088 3543 c6 -2 18 -2 25 0 6 3 1 5 -13 5 -14 0 -19 -2 -12 -5z"/>
<path d="M9757 3515 c-24 -50 -20 -58 4 -12 25 48 46 45 76 -8 28 -50 30 -38
3 15 -27 53 -59 55 -83 5z"/>
<path d="M4535 3521 c-3 -12 3 -38 16 -62 12 -24 99 -224 195 -446 228 -530
252 -578 284 -578 22 0 33 16 95 140 39 77 117 244 174 370 58 127 140 305
184 398 65 137 77 170 67 182 -10 12 -35 15 -114 13 l-101 -2 95 -3 c52 -2 99
-8 104 -13 12 -12 -144 -341 -157 -333 -6 4 -7 1 -2 -7 7 -12 -44 -135 -52
-126 -3 2 5 22 16 45 12 22 21 44 21 48 -1 10 -59 -98 -60 -110 0 -5 5 -5 10
-2 6 3 10 3 10 -2 -1 -12 -69 -139 -70 -130 0 4 12 30 26 58 14 28 24 53 21
55 -8 9 -59 -114 -52 -126 5 -8 4 -11 -2 -7 -5 3 -17 -10 -26 -29 -23 -47 -21
-57 3 -14 24 43 26 33 3 -14 -9 -19 -21 -32 -26 -29 -6 4 -8 -1 -4 -11 5 -11
3 -15 -5 -10 -8 5 -9 2 -5 -10 4 -9 3 -15 -2 -12 -12 8 -35 -50 -25 -65 5 -8
3 -9 -6 -4 -10 6 -12 4 -7 -9 5 -11 3 -15 -5 -10 -8 5 -9 2 -5 -10 4 -9 3 -15
-1 -12 -12 7 -44 -63 -36 -76 4 -6 3 -8 -2 -5 -6 3 -20 -14 -33 -39 -13 -24
-28 -44 -33 -44 -5 0 -24 32 -42 70 -18 39 -36 67 -41 63 -4 -5 -5 -2 -1 5 10
16 -53 164 -65 156 -5 -3 -6 1 -4 8 5 12 -150 386 -256 621 -29 64 -34 93 -12
65 6 -7 92 -202 191 -433 218 -507 226 -525 232 -525 8 0 47 80 135 275 40 88
94 205 120 260 26 55 78 170 116 255 39 87 80 165 94 177 14 12 25 25 25 28 0
3 -40 5 -89 5 l-89 0 -17 -37 c-9 -21 -20 -47 -25 -58 -5 -11 -47 -108 -94
-215 -46 -107 -94 -217 -104 -245 -11 -27 -29 -70 -40 -94 l-20 -43 -25 43
c-13 24 -75 172 -137 329 -61 157 -115 292 -119 300 -6 11 -30 16 -99 18 -88
3 -91 2 -94 -20 l-3 -23 -13 23 c-7 12 -10 27 -7 32 3 6 53 10 110 10 89 0
106 -3 114 -17 6 -10 11 -13 11 -7 0 27 -27 34 -131 34 -98 0 -108 -2 -114
-19z m173 -28 c-21 -2 -55 -2 -75 0 -21 2 -4 4 37 4 41 0 58 -2 38 -4z m749 0
c-20 -2 -52 -2 -70 0 -17 2 0 4 38 4 39 0 53 -2 32 -4z m-774 -104 c5 -4 6
-12 3 -18 -4 -6 -1 -13 6 -16 8 -3 15 -15 15 -27 1 -12 6 -24 10 -27 4 -3 9
-15 11 -26 2 -11 9 -24 15 -30 7 -5 12 -16 13 -22 1 -7 2 -20 3 -28 0 -8 11
-24 24 -36 12 -12 16 -19 10 -15 -7 4 -13 5 -13 3 0 -14 54 -133 64 -139 6 -4
8 -8 4 -8 -4 0 6 -28 21 -62 16 -35 41 -93 57 -130 16 -38 32 -68 37 -68 4 0
5 -5 2 -10 -8 -13 35 -91 47 -84 4 3 11 -2 14 -10 3 -9 10 -16 16 -16 5 0 6 5
3 10 -3 6 1 10 9 10 8 0 18 10 22 23 4 12 10 24 13 27 4 3 15 25 25 50 11 25
34 78 53 118 18 41 30 79 26 85 -3 7 -2 8 2 4 10 -9 64 98 65 127 0 11 3 16 7
13 6 -7 33 55 35 81 1 6 4 12 8 12 5 0 62 112 66 130 0 3 11 28 24 55 13 28
23 53 22 58 -1 4 2 7 8 7 6 0 10 7 10 15 0 8 5 15 10 15 14 0 14 0 -35 -99
-25 -50 -45 -93 -45 -96 0 -3 -28 -63 -61 -133 -34 -70 -70 -147 -81 -172 -10
-24 -53 -119 -94 -210 -42 -91 -82 -178 -89 -194 -12 -28 -13 -28 -24 -8 -6
11 -24 54 -40 94 -16 40 -45 109 -64 153 -138 315 -279 643 -284 660 -3 11 5
2 17 -20 12 -22 27 -43 33 -46z m-75 6 c-3 -3 -9 2 -12 12 -6 14 -5 15 5 6 7
-7 10 -15 7 -18z m32 -70 c0 -5 -5 -3 -10 5 -5 8 -10 20 -10 25 0 6 5 3 10 -5
5 -8 10 -19 10 -25z m110 -260 c0 -5 -5 -3 -10 5 -5 8 -10 20 -10 25 0 6 5 3
10 -5 5 -8 10 -19 10 -25z m29 -70 c0 -5 -6 1 -14 15 -8 14 -14 30 -14 35 0 6
6 -1 14 -15 8 -14 14 -29 14 -35z m364 -60 c-3 -9 -8 -14 -10 -11 -3 3 -2 9 2
15 9 16 15 13 8 -4z m-93 -131 c0 -2 -7 -4 -15 -4 -8 0 -15 4 -15 10 0 5 7 7
15 4 8 -4 15 -8 15 -10z m121 -91 c-12 -20 -14 -14 -5 12 4 9 9 14 11 11 3 -2
0 -13 -6 -23z m-252 -38 c0 -5 -6 1 -14 15 -8 14 -14 30 -14 35 0 6 6 -1 14
-15 8 -14 14 -29 14 -35z m151 -174 c-28 -56 -35 -52 -8 4 12 24 23 43 26 41
2 -2 -6 -22 -18 -45z"/>
<path d="M5957 3533 c-3 -5 41 -8 98 -8 57 0 101 3 98 8 -2 4 -46 7 -98 7 -52
0 -96 -3 -98 -7z"/>
<path d="M7038 3533 c7 -3 16 -2 19 1 4 3 -2 6 -13 5 -11 0 -14 -3 -6 -6z"/>
<path d="M7198 3533 c7 -3 16 -2 19 1 4 3 -2 6 -13 5 -11 0 -14 -3 -6 -6z"/>
<path d="M8120 3530 c-9 -5 79 -9 229 -10 251 -1 307 -7 369 -40 68 -36 130
-106 157 -176 12 -32 14 -33 10 -9 -9 46 -76 135 -130 172 -77 54 -124 62
-385 67 -133 3 -241 2 -250 -4z"/>
<path d="M6975 3520 c-13 -5 -14 -9 -5 -9 8 0 24 4 35 9 13 5 14 9 5 9 -8 0
-24 -4 -35 -9z"/>
<path d="M6995 3501 c-153 -44 -256 -133 -335 -290 -50 -101 -52 -106 -51
-189 2 -265 95 -436 286 -527 185 -88 403 -72 561 41 35 24 76 60 93 81 103
125 152 320 121 484 -22 114 -109 253 -194 311 -17 11 -9 1 18 -23 111 -98
167 -230 167 -392 1 -54 -2 -101 -5 -105 -3 -3 -6 35 -6 84 0 165 -45 281
-150 384 -142 140 -328 192 -505 141z m168 2 c-18 -2 -48 -2 -65 0 -18 2 -4 4
32 4 36 0 50 -2 33 -4z m102 -13 c14 -7 8 -8 -20 -3 -22 3 -42 7 -44 9 -9 8
45 2 64 -6z m-258 -6 c-3 -3 -12 -4 -19 -1 -8 3 -5 6 6 6 11 1 17 -2 13 -5z
m203 -75 c0 -4 14 -9 32 -13 17 -3 29 -8 27 -11 -3 -2 -25 1 -49 6 -137 32
-274 -14 -376 -123 -31 -35 -52 -53 -46 -42 39 73 160 162 249 183 42 11 163
10 163 0z m20 -35 c119 -35 231 -144 265 -257 15 -52 19 -148 7 -179 -4 -9 -7
20 -7 65 -1 67 -5 92 -28 140 -14 32 -31 56 -36 53 -5 -4 -13 -1 -17 5 -4 8
-3 9 4 5 30 -19 7 16 -42 63 -56 52 -99 76 -118 65 -6 -4 -8 -2 -5 3 12 19
-79 36 -151 30 -130 -13 -237 -89 -299 -215 -46 -94 -41 -207 13 -319 28 -55
54 -86 54 -62 0 7 17 -3 38 -23 36 -34 72 -58 89 -58 4 0 -6 9 -24 20 -18 10
-51 38 -73 61 -24 25 -38 34 -34 23 11 -34 -26 16 -47 64 -22 50 -40 152 -27
152 4 0 9 -8 9 -17 1 -10 5 8 10 40 12 82 40 139 99 202 67 70 118 90 225 89
67 0 89 -5 138 -29 123 -61 191 -176 192 -325 0 -101 -23 -159 -93 -228 -121
-122 -307 -131 -449 -22 -58 43 -73 39 -20 -6 111 -94 305 -110 417 -34 48 32
57 36 41 17 -7 -9 -38 -29 -70 -44 -50 -25 -67 -28 -156 -28 -113 0 -161 16
-230 76 -91 80 -165 256 -150 358 14 98 100 225 190 281 75 47 195 61 285 34z
m105 -20 c74 -49 148 -131 168 -186 11 -31 -2 -20 -23 20 -29 54 -87 115 -149
156 -29 20 -49 36 -44 36 4 0 26 -12 48 -26z m-192 -1 c-7 -2 -21 -2 -30 0
-10 3 -4 5 12 5 17 0 24 -2 18 -5z m-360 -168 c-3 -9 -8 -14 -10 -11 -3 3 -2
9 2 15 9 16 15 13 8 -4z m846 -132 c15 -171 -13 -285 -99 -399 -22 -29 -62
-67 -89 -84 -28 -18 -48 -37 -44 -43 3 -6 1 -7 -6 -3 -6 4 -41 -5 -77 -19
-249 -100 -556 37 -644 286 -35 101 -51 256 -30 304 6 13 9 -13 9 -75 1 -64 8
-120 22 -170 43 -155 109 -234 258 -308 l94 -47 111 0 c92 0 121 4 171 23 166
64 277 190 307 350 10 57 6 249 -7 287 -6 18 -5 18 5 3 6 -10 14 -57 19 -105z
m-892 5 c-3 -8 -6 -5 -6 6 -1 11 2 17 5 13 3 -3 4 -12 1 -19z m903 -238 c-15
-57 -21 -46 -7 14 6 27 13 44 15 38 2 -6 -2 -29 -8 -52z m-109 -113 c-33 -53
-110 -121 -173 -150 -31 -15 -60 -27 -65 -27 -14 0 32 27 57 33 39 10 139 94
168 142 15 24 29 41 31 39 2 -1 -6 -18 -18 -37z m-720 -60 c31 -29 75 -61 100
-71 24 -10 60 -26 79 -35 26 -12 66 -16 162 -16 128 0 141 -6 37 -19 -110 -14
-256 30 -361 107 -26 19 -85 87 -76 87 2 0 29 -24 59 -53z"/>
<path d="M7048 2673 c7 -3 16 -2 19 1 4 3 -2 6 -13 5 -11 0 -14 -3 -6 -6z"/>
<path d="M7145 2670 l-70 -6 65 -2 c36 0 74 3 85 8 22 9 22 9 -80 0z"/>
<path d="M9786 3511 c-8 -13 -193 -421 -256 -566 -96 -220 -207 -457 -223
-475 -9 -11 -13 -22 -8 -24 9 -6 202 1 208 8 3 2 25 48 49 102 24 54 49 101
56 106 14 9 285 10 330 1 22 -4 33 -21 73 -109 26 -56 54 -105 62 -108 20 -8
167 -8 187 0 9 3 16 15 16 25 0 10 -5 16 -12 14 -9 -3 -30 36 -62 110 -28 65
-53 112 -59 108 -6 -3 -7 -1 -3 6 9 15 -3 53 -15 46 -5 -3 -6 2 -2 11 3 10 2
15 -3 12 -5 -4 -9 4 -10 15 -1 12 -46 128 -101 257 -186 437 -211 487 -227
461z m-69 -256 c-20 -41 -38 -75 -41 -75 -2 0 12 36 32 80 20 43 38 77 40 75
3 -2 -12 -38 -31 -80z m88 -10 c6 -5 25 -38 41 -72 17 -35 35 -59 39 -55 5 4
6 2 2 -3 -6 -11 -3 -19 59 -150 20 -44 36 -82 35 -84 -2 -2 3 -8 11 -12 11 -7
11 -9 0 -9 -8 0 -53 82 -102 184 -49 102 -94 187 -100 191 -6 4 -46 -69 -98
-174 -48 -99 -90 -180 -94 -180 -9 -1 -4 20 12 49 8 14 13 28 12 33 -1 4 2 7
7 7 5 0 12 12 16 27 3 15 11 31 16 34 6 3 11 12 12 20 2 8 10 25 20 39 9 13
17 35 17 47 0 13 5 23 11 23 6 0 9 7 5 15 -3 8 -2 15 3 15 8 0 19 28 19 47 0
9 24 22 36 20 6 -1 15 -6 21 -12z m-5 -34 c0 -7 152 -329 167 -353 2 -5 0 -8
-6 -8 -5 0 -19 20 -31 46 -12 25 -24 43 -27 40 -3 -2 0 -14 7 -25 6 -12 8 -21
6 -21 -3 0 -13 14 -22 31 -8 17 -11 28 -5 25 18 -12 13 3 -45 123 l-57 116
-59 -125 c-33 -69 -68 -144 -79 -167 l-18 -43 152 -1 c113 -1 139 -4 102 -9
-61 -10 -227 -12 -249 -4 -9 3 -16 14 -16 23 0 21 162 361 172 361 5 0 8 -4 8
-9z m-139 -74 c-10 -9 -11 -8 -5 6 3 10 9 15 12 12 3 -3 0 -11 -7 -18z m319
-42 c0 -5 -5 -3 -10 5 -5 8 -10 20 -10 25 0 6 5 3 10 -5 5 -8 10 -19 10 -25z
m-337 0 c-3 -9 -8 -14 -10 -11 -3 3 -2 9 2 15 9 16 15 13 8 -4z m197 -105 l50
-100 -105 0 -105 0 50 100 c28 55 52 100 55 100 3 0 27 -45 55 -100z m170 35
c0 -5 -5 -3 -10 5 -5 8 -10 20 -10 25 0 6 5 3 10 -5 5 -8 10 -19 10 -25z m-85
-155 c4 -6 -43 -10 -135 -10 -92 0 -139 4 -135 10 4 6 60 10 135 10 75 0 131
-4 135 -10z m73 -115 c15 -4 29 -21 42 -51 11 -24 26 -47 35 -50 8 -4 15 -11
14 -18 -3 -25 2 -37 13 -30 8 5 9 2 5 -10 -4 -10 -3 -15 3 -11 6 3 10 1 10 -5
0 -7 6 -8 18 -1 14 7 20 2 34 -25 l18 -34 -38 0 -37 0 -55 113 -55 112 -220 0
-220 0 -32 -65 c-18 -36 -42 -86 -53 -112 -20 -47 -22 -48 -64 -48 -43 0 -44
1 -33 24 7 14 15 20 18 14 4 -6 18 -8 32 -4 20 5 36 27 75 103 35 70 55 99 71
103 28 7 389 2 419 -5z m57 -135 l50 -110 62 0 c34 0 65 -5 68 -11 10 -15 6
-16 -71 -11 l-70 4 -51 109 -51 109 -205 0 -204 0 -18 -39 c-9 -22 -14 -45
-10 -52 5 -7 4 -10 -2 -6 -5 3 -24 -25 -42 -63 l-32 -70 -75 0 c-48 0 -73 4
-69 10 3 6 26 10 50 10 77 0 86 8 139 124 l49 106 216 0 216 0 50 -110z m-79
73 c-7 -7 -377 -5 -385 2 -2 3 85 5 194 5 109 0 195 -3 191 -7z m-553 -101
c-3 -12 -9 -19 -14 -16 -5 3 -3 14 3 24 15 24 19 21 11 -8z m108 -49 c-12 -20
-14 -14 -5 12 4 9 9 14 11 11 3 -2 0 -13 -6 -23z m-30 -76 c-10 -9 -11 -8 -5
6 3 10 9 15 12 12 3 -3 0 -11 -7 -18z m-63 -4 c-21 -2 -55 -2 -75 0 -21 2 -4
4 37 4 41 0 58 -2 38 -4z m759 0 c-20 -2 -52 -2 -70 0 -17 2 0 4 38 4 39 0 53
-2 32 -4z"/>
<path d="M9408 2533 c7 -3 16 -2 19 1 4 3 -2 6 -13 5 -11 0 -14 -3 -6 -6z"/>
<path d="M5970 3501 c0 -5 7 -11 15 -15 13 -5 15 -69 15 -491 l0 -485 23 0
c12 0 39 -3 59 -6 l37 -6 1 488 c0 305 4 492 10 498 21 21 7 26 -75 26 -47 0
-85 -4 -85 -9z m123 -8 c-18 -2 -48 -2 -65 0 -18 2 -4 4 32 4 36 0 50 -2 33
-4z m4 -135 c-2 -13 -4 -3 -4 22 0 25 2 35 4 23 2 -13 2 -33 0 -45z m0 -120
c-3 -8 -6 -5 -6 6 -1 11 2 17 5 13 3 -3 4 -12 1 -19z m0 -80 c-3 -8 -6 -5 -6
6 -1 11 2 17 5 13 3 -3 4 -12 1 -19z m0 -40 c-3 -8 -6 -5 -6 6 -1 11 2 17 5
13 3 -3 4 -12 1 -19z m0 -50 c-3 -8 -6 -5 -6 6 -1 11 2 17 5 13 3 -3 4 -12 1
-19z m0 -170 c-2 -13 -4 -5 -4 17 -1 22 1 32 4 23 2 -10 2 -28 0 -40z m0 -80
c-3 -8 -6 -5 -6 6 -1 11 2 17 5 13 3 -3 4 -12 1 -19z m0 -65 c-3 -10 -5 -4 -5
12 0 17 2 24 5 18 2 -7 2 -21 0 -30z m0 -95 c-3 -8 -6 -5 -6 6 -1 11 2 17 5
13 3 -3 4 -12 1 -19z m3 -113 c0 -23 -4 -25 -46 -25 -28 0 -43 4 -39 10 4 6
10 8 15 5 5 -3 11 -1 15 5 3 5 15 10 26 10 10 0 19 5 19 10 0 6 2 10 5 10 3 0
5 -11 5 -25z"/>
<path d="M6161 3488 c-2 -16 -5 -32 -6 -38 -1 -5 -4 -47 -6 -92 l-3 -83 -6 75
c-4 41 -7 -135 -8 -391 -2 -363 -5 -468 -14 -471 -17 -6 -149 -1 -156 6 -3 3
0 6 6 6 9 0 12 123 12 490 0 429 -2 490 -15 490 -13 0 -15 -64 -15 -515 l0
-515 105 0 c100 0 105 1 110 23 3 12 4 252 3 532 -2 281 -5 498 -7 483z m-8
-275 c-5 -65 -13 -68 -13 -5 0 29 4 52 8 52 5 0 7 -21 5 -47z m-6 -95 c-3 -7
-5 -2 -5 12 0 14 2 19 5 13 2 -7 2 -19 0 -25z m0 -95 c-2 -16 -4 -3 -4 27 0
30 2 43 4 28 2 -16 2 -40 0 -55z m10 -485 c-3 -7 -5 -2 -5 12 0 14 2 19 5 13
2 -7 2 -19 0 -25z m-12 -68 c-3 -6 -40 -9 -83 -8 l-77 2 80 6 c44 3 81 7 83 8
2 1 0 -2 -3 -8z"/>
<path d="M6920 3500 c-8 -5 -10 -10 -5 -10 6 0 17 5 25 10 8 5 11 10 5 10 -5
0 -17 -5 -25 -10z"/>
<path d="M7320 3500 c8 -5 20 -10 25 -10 6 0 3 5 -5 10 -8 5 -19 10 -25 10 -5
0 -3 -5 5 -10z"/>
<path d="M8119 3498 c-8 -34 -12 -176 -13 -568 l-1 -475 95 -3 c80 -2 97 0
107 15 9 12 13 63 13 174 0 178 -5 169 92 169 57 0 56 0 183 -212 l88 -148
114 0 c91 0 115 3 119 15 5 12 -60 129 -190 341 l-26 42 69 50 c97 70 123 126
127 265 2 70 0 90 -5 62 -6 -31 -8 -34 -10 -13 -2 49 -41 135 -82 181 -22 26
-65 58 -97 74 l-57 28 -262 3 c-145 2 -263 2 -264 0z m244 -15 l-223 -3 0
-490 0 -490 60 0 60 0 0 188 0 187 119 -3 119 -3 101 -168 c55 -93 104 -176
107 -185 5 -13 21 -16 79 -16 41 0 77 -5 80 -10 5 -7 -21 -10 -76 -8 l-83 3
-22 38 c-12 21 -23 37 -26 35 -11 -7 -39 26 -33 40 7 19 -54 124 -67 116 -7
-4 -8 -2 -4 4 10 16 -12 54 -26 46 -6 -4 -8 -3 -4 4 3 6 -3 27 -15 46 l-21 36
-109 0 -110 0 5 -180 5 -180 -23 -6 c-12 -3 -45 -4 -72 -2 l-49 3 -3 503 -2
502 227 -2 228 -3 -222 -2z m332 -27 c50 -23 135 -104 135 -128 0 -7 -6 -4
-12 7 -32 58 -104 112 -178 131 -30 9 -37 13 -20 13 14 1 48 -10 75 -23z
m-267 -50 c17 -2 32 0 32 5 0 6 8 5 20 -1 10 -6 23 -9 27 -8 21 5 112 -16 140
-33 38 -24 91 -103 98 -150 5 -31 4 -29 -13 13 -29 71 -58 104 -109 129 -42
21 -62 23 -210 23 -90 1 -163 2 -163 3 0 1 3 8 6 16 5 14 60 15 172 3z m205
-59 c45 -29 80 -92 85 -153 2 -30 0 -54 -5 -54 -5 0 -8 15 -6 33 2 18 -5 49
-17 72 -13 26 -18 31 -14 15 4 -22 4 -23 -6 -7 -7 10 -9 21 -6 24 11 11 -17
45 -48 58 -31 13 -98 17 -258 16 l-78 -1 0 -177 c0 -119 -4 -173 -10 -163 -5
8 -10 93 -10 188 l0 174 173 -4 c145 -2 177 -6 200 -21z m-15 -27 c17 -11 32
-22 32 -25 0 -3 -12 2 -27 12 -22 14 -54 18 -167 21 -192 4 -203 9 -21 11 133
1 154 -1 183 -19z m9 -52 c18 -17 33 -38 33 -45 0 -8 7 -16 15 -19 22 -9 19
-63 -7 -114 -37 -70 -67 -80 -233 -78 l-140 2 140 6 c135 5 168 13 193 43 7 8
-9 4 -35 -10 -43 -22 -59 -24 -160 -22 l-113 2 0 136 0 136 137 -2 136 -2 34
-33z m-330 -165 c-2 -38 -3 -7 -3 67 0 74 1 105 3 68 2 -38 2 -98 0 -135z
m561 80 c5 -82 -8 -141 -41 -187 -15 -21 -17 -30 -7 -36 8 -5 3 -14 -18 -29
-39 -27 -53 -27 -18 0 39 30 24 36 -16 6 -18 -13 -47 -32 -65 -41 l-32 -16 40
-58 c22 -31 73 -111 111 -177 39 -66 78 -130 86 -142 8 -13 10 -23 4 -23 -5 0
-38 47 -72 105 -57 96 -81 129 -66 90 8 -22 -2 -18 -15 6 -8 15 -8 19 0 15 17
-11 13 3 -10 40 -21 35 -36 45 -25 19 8 -22 -2 -18 -15 6 -8 17 -8 20 1 14 15
-9 13 -3 -20 52 -18 31 -30 41 -42 37 -10 -3 -18 -1 -18 5 0 5 32 27 71 47
122 64 153 122 147 275 -2 58 0 85 7 78 5 -5 11 -44 13 -86z m19 -25 c-3 -8
-6 -5 -6 6 -1 11 2 17 5 13 3 -3 4 -12 1 -19z m0 -50 c-3 -7 -5 -2 -5 12 0 14
2 19 5 13 2 -7 2 -19 0 -25z m-176 -21 c-13 -38 -41 -67 -88 -91 -25 -12 -63
-16 -172 -16 -77 0 -142 3 -144 8 -3 4 52 6 121 4 75 -2 143 1 165 8 50 15
104 64 112 101 4 17 9 28 12 25 3 -2 0 -20 -6 -39z m160 -54 c-12 -20 -14 -14
-5 12 4 9 9 14 11 11 3 -2 0 -13 -6 -23z m-70 -20 c-5 -10 -20 -28 -33 -39
-28 -26 -148 -88 -148 -76 0 4 13 12 28 18 46 18 132 77 138 96 3 10 10 18 15
18 6 0 6 -6 0 -17z m-269 -130 c11 -15 11 -16 -5 -10 -10 4 -66 7 -125 8 -65
0 -100 4 -91 10 8 4 58 8 111 8 77 0 99 -4 110 -16z m213 7 c-3 -5 -11 -10
-16 -10 -6 0 -7 5 -4 10 3 6 11 10 16 10 6 0 7 -4 4 -10z m-438 -312 c-1 -46
-3 -11 -3 77 0 88 2 125 3 83 2 -42 2 -114 0 -160z m308 160 c21 -35 49 -73
61 -86 13 -13 24 -33 26 -45 2 -12 8 -22 15 -22 6 0 21 -10 33 -22 19 -21 32
-27 52 -25 3 1 11 -5 17 -12 9 -10 1 -13 -39 -15 -28 -1 -50 2 -50 6 0 5 -38
72 -84 151 -47 78 -81 140 -77 138 4 -3 25 -33 46 -68z m-368 -160 c-3 -8 -6
-5 -6 6 -1 11 2 17 5 13 3 -3 4 -12 1 -19z m-39 -46 c15 2 30 10 34 18 5 11 7
9 7 -7 1 -20 -4 -23 -39 -23 -35 0 -40 3 -39 23 1 17 2 18 6 4 3 -13 12 -17
31 -15z"/>
<path d="M8630 2591 c0 -5 5 -13 10 -16 6 -3 10 -2 10 4 0 5 -4 13 -10 16 -5
3 -10 2 -10 -4z"/>
<path d="M5500 3465 c-7 -9 -11 -17 -9 -20 3 -2 10 5 17 15 14 24 10 26 -8 5z"/>
<path d="M9861 3445 c0 -5 8 -26 19 -45 11 -19 19 -30 19 -25 0 6 -8 26 -19
45 -11 19 -19 31 -19 25z"/>
<path d="M5465 3399 c-9 -17 -15 -33 -13 -35 3 -2 12 12 21 31 21 43 13 47 -8
4z"/>
<path d="M9901 3355 c0 -5 6 -21 14 -35 8 -14 14 -20 14 -15 0 6 -6 21 -14 35
-8 14 -14 21 -14 15z"/>
<path d="M5406 3269 c-15 -34 -25 -63 -23 -65 2 -2 16 24 30 58 15 34 25 63
23 65 -2 2 -15 -24 -30 -58z"/>
<path d="M4860 3285 c0 -5 5 -17 10 -25 5 -8 10 -10 10 -5 0 6 -5 17 -10 25
-5 8 -10 11 -10 5z"/>
<path d="M9941 3265 c0 -5 6 -21 14 -35 8 -14 14 -20 14 -15 0 6 -6 21 -14 35
-8 14 -14 21 -14 15z"/>
<path d="M9974 3190 c9 -32 39 -101 43 -97 2 3 -8 29 -22 58 -14 30 -23 47
-21 39z"/>
<path d="M10023 3070 c14 -42 120 -290 123 -287 4 4 -100 260 -116 285 -8 11
-10 12 -7 2z"/>
<path d="M4970 3005 c0 -5 5 -17 10 -25 5 -8 10 -10 10 -5 0 6 -5 17 -10 25
-5 8 -10 11 -10 5z"/>
<path d="M5010 2901 c0 -6 4 -13 10 -16 6 -3 7 1 4 9 -7 18 -14 21 -14 7z"/>
<path d="M10151 2765 c0 -5 6 -21 14 -35 8 -14 14 -20 14 -15 0 6 -6 21 -14
35 -8 14 -14 21 -14 15z"/>
<path d="M10181 2695 c0 -5 8 -26 19 -45 11 -19 19 -30 19 -25 0 6 -8 26 -19
45 -11 19 -19 31 -19 25z"/>
<path d="M10221 2605 c0 -5 8 -26 19 -45 11 -19 19 -30 19 -25 0 6 -8 26 -19
45 -11 19 -19 31 -19 25z"/>
<path d="M5788 2243 c12 -2 30 -2 40 0 9 3 -1 5 -23 4 -22 0 -30 -2 -17 -4z"/>
<path d="M5898 2243 c23 -2 61 -2 85 0 23 2 4 4 -43 4 -47 0 -66 -2 -42 -4z"/>
<path d="M6048 2243 c7 -3 16 -2 19 1 4 3 -2 6 -13 5 -11 0 -14 -3 -6 -6z"/>
<path d="M6107 2243 c18 -2 50 -2 70 0 21 2 7 4 -32 4 -38 0 -55 -2 -38 -4z"/>
<path d="M6268 2243 c23 -2 59 -2 80 0 20 2 1 4 -43 4 -44 0 -61 -2 -37 -4z"/>
<path d="M7403 2243 c555 -2 1459 -2 2010 0 551 1 98 2 -1008 2 -1105 0 -1556
-1 -1002 -2z"/>
<path d="M10463 2243 c15 -2 37 -2 50 0 12 2 0 4 -28 4 -27 0 -38 -2 -22 -4z"/>
<path d="M6580 6716 c0 -2 7 -7 16 -10 8 -3 12 -2 9 4 -6 10 -25 14 -25 6z"/>
<path d="M8336 6600 c24 -44 65 -117 90 -162 25 -46 87 -167 138 -270 50 -103
94 -187 98 -188 6 0 93 156 204 368 47 89 48 94 30 107 -18 14 -577 225 -595
225 -5 0 10 -36 35 -80z m194 -215 c0 -7 8 -19 18 -24 9 -6 13 -11 9 -11 -5 0
-1 -10 7 -22 17 -24 22 -48 7 -32 -20 20 -61 104 -51 104 5 0 10 -7 10 -15z
m201 -182 c-43 -84 -56 -127 -60 -197 -1 -6 -6 -5 -13 2 -6 6 -12 41 -13 77
-2 47 1 63 8 56 14 -14 30 -14 22 -1 -3 6 -2 10 3 10 4 0 21 24 36 53 16 28
35 65 43 80 8 16 17 26 20 24 2 -3 -18 -49 -46 -104z m-126 34 c8 -20 13 -37
10 -37 -7 0 -35 57 -35 71 0 18 7 8 25 -34z m32 -62 c0 -8 -4 -12 -9 -9 -4 3
-8 9 -8 15 0 5 4 9 8 9 5 0 9 -7 9 -15z"/>
<path d="M7207 6551 c-4 -17 -3 -21 5 -13 5 5 8 16 6 23 -3 8 -7 3 -11 -10z"/>
<path d="M8312 6505 c12 -24 23 -43 26 -41 4 5 -36 86 -43 86 -3 0 5 -20 17
-45z"/>
<path d="M5860 6441 c0 -6 4 -13 10 -16 6 -3 7 1 4 9 -7 18 -14 21 -14 7z"/>
<path d="M8911 6234 c-44 -88 -96 -185 -115 -218 -20 -32 -36 -62 -36 -67 0
-4 21 -11 48 -14 116 -16 456 -77 547 -99 55 -13 102 -22 104 -20 2 2 -2 10
-9 19 -7 9 -10 18 -8 21 3 3 15 -7 27 -22 11 -15 21 -23 21 -19 0 5 -12 23
-26 42 -44 58 -385 467 -407 488 l-21 20 14 -20 c8 -11 80 -99 160 -195 80
-96 165 -199 189 -228 24 -29 41 -55 39 -58 -5 -5 -238 269 -361 425 -38 47
-73 90 -77 95 -5 4 -44 -63 -89 -150z m139 -249 c14 -2 25 -4 25 -5 0 -1 9 -3
20 -4 105 -15 175 -35 182 -53 3 -7 11 -13 17 -13 7 0 25 -13 39 -30 35 -39
18 -39 -25 0 -18 17 -44 33 -58 36 -14 2 -45 9 -70 14 -42 10 -178 30 -297 45
-29 4 -53 12 -53 17 0 9 122 5 220 -7z m380 -148 c0 -13 -44 3 -57 21 -7 9
-13 27 -13 41 0 23 2 22 35 -15 19 -21 34 -43 35 -47z"/>
<path d="M7101 6323 c-1 -6 -4 -20 -7 -30 -5 -17 -5 -17 6 0 6 10 9 23 6 30
-3 9 -5 9 -5 0z"/>
<path d="M8885 6250 c-9 -16 -13 -30 -11 -30 3 0 12 14 21 30 9 17 13 30 11
30 -3 0 -12 -13 -21 -30z"/>
<path d="M6001 6235 c0 -5 6 -19 14 -29 8 -11 15 -15 15 -10 0 6 -7 19 -15 30
-8 10 -14 15 -14 9z"/>
<path d="M8835 6209 c-4 -6 -5 -12 -2 -15 2 -3 7 2 10 11 7 17 1 20 -8 4z"/>
<path d="M8829 6142 c-20 -37 -42 -66 -48 -64 -7 1 -10 -2 -6 -7 3 -6 -1 -24
-10 -42 -9 -17 -15 -33 -12 -35 2 -2 30 43 62 101 31 59 56 108 54 110 -2 2
-20 -27 -40 -63z"/>
<path d="M8790 6119 c0 -5 5 -7 10 -4 6 3 10 8 10 11 0 2 -4 4 -10 4 -5 0 -10
-5 -10 -11z"/>
<path d="M9390 6096 c0 -2 8 -10 18 -17 15 -13 16 -12 3 4 -13 16 -21 21 -21
13z"/>
<path d="M9550 5916 c0 -2 8 -10 18 -17 15 -13 16 -12 3 4 -13 16 -21 21 -21
13z"/>
<path d="M9607 5839 c10 -17 24 -36 32 -42 8 -7 2 7 -14 31 -32 49 -45 57 -18
11z"/>
<path d="M8727 5819 l27 -41 60 6 c32 3 111 7 175 7 130 2 124 4 -104 38 -77
12 -150 24 -163 26 -23 6 -22 5 5 -36z m161 -13 c3 -3 -26 -6 -64 -5 -46 0
-62 3 -49 9 21 8 103 5 113 -4z"/>
<path d="M9365 5790 c-4 -6 3 -10 14 -10 25 0 27 6 6 13 -8 4 -17 2 -20 -3z"/>
<path d="M9143 5763 c9 -2 23 -2 30 0 6 3 -1 5 -18 5 -16 0 -22 -2 -12 -5z"/>
<path d="M9120 5720 c0 -6 36 -10 92 -10 50 0 89 2 87 4 -11 10 -179 16 -179
6z"/>
<path d="M9330 5680 c0 -5 5 -10 11 -10 5 0 7 5 4 10 -3 6 -8 10 -11 10 -2 0
-4 -4 -4 -10z"/>
<path d="M9300 5640 c-9 -6 -10 -10 -3 -10 6 0 15 5 18 10 8 12 4 12 -15 0z"/>
<path d="M9265 5598 c-107 -48 -567 -224 -680 -262 l-81 -26 -110 -148 c-230
-305 -402 -538 -429 -582 -15 -24 -90 -138 -166 -252 -76 -114 -136 -208 -133
-208 10 0 1056 923 1320 1165 66 60 175 159 241 218 125 112 152 138 137 136
-5 -1 -49 -19 -99 -41z m-377 -335 c-18 -16 -46 -41 -63 -58 -60 -58 -160
-150 -205 -188 -79 -67 -173 -150 -235 -208 -33 -31 -71 -65 -84 -75 -13 -10
-35 -32 -50 -48 -37 -41 -172 -156 -183 -156 -5 0 -3 7 6 15 8 8 17 15 19 15
3 0 30 24 59 53 105 101 224 212 265 247 23 19 39 38 37 42 -3 4 0 8 6 8 6 0
17 6 24 13 7 6 25 21 40 32 15 11 44 36 65 55 21 19 62 55 90 80 29 25 76 68
104 96 58 56 118 104 130 104 5 0 -6 -12 -25 -27z m-1128 -1048 c-24 -24 -46
-43 -48 -40 -7 7 50 75 58 70 5 -3 11 -1 15 5 3 5 9 10 13 10 3 0 -14 -20 -38
-45z"/>
<path d="M6680 4277 c0 -2 15 -16 33 -33 l32 -29 -29 33 c-28 30 -36 37 -36
29z"/>
<path d="M6800 4165 c19 -19 36 -35 39 -35 3 0 -10 16 -29 35 -19 19 -36 35
-39 35 -3 0 10 -16 29 -35z"/>
<path d="M7774 4028 l-29 -33 33 29 c17 17 32 31 32 33 0 8 -8 1 -36 -29z"/>
<path d="M6975 4003 c28 -26 82 -76 120 -110 l70 -63 -135 -1 c-74 -1 -243 -1
-375 -1 -132 0 -226 -3 -210 -7 17 -3 199 -8 405 -9 355 -2 373 -1 345 14 -16
10 -84 64 -150 122 -66 57 -97 82 -70 55z"/>
<path d="M7694 3958 l-19 -23 23 19 c12 11 22 21 22 23 0 8 -8 2 -26 -19z"/>
<path d="M7602 3880 c-18 -17 -29 -30 -24 -30 5 0 21 14 37 30 37 38 30 38
-13 0z"/>
<path d="M4390 3820 c336 -11 2012 -11 2005 0 -4 6 -412 9 -1103 8 -603 -1
-1009 -5 -902 -8z"/>
<path d="M10573 3823 c9 -2 23 -2 30 0 6 3 -1 5 -18 5 -16 0 -22 -2 -12 -5z"/>
<path d="M4118 3643 c-8 -243 -8 -1388 -1 -1399 5 -7 9 332 10 752 2 719 -1
917 -9 647z"/>
<path d="M4943 2153 c406 -2 1068 -2 1470 0 403 1 71 2 -738 2 -808 0 -1138
-1 -732 -2z"/>
<path d="M7183 2153 c9 -2 23 -2 30 0 6 3 -1 5 -18 5 -16 0 -22 -2 -12 -5z"/>
<path d="M10568 2153 c7 -3 16 -2 19 1 4 3 -2 6 -13 5 -11 0 -14 -3 -6 -6z"/>
<path d="M7603 2143 c120 -2 314 -2 430 0 117 1 19 2 -218 2 -236 0 -332 -1
-212 -2z"/>
<path d="M8368 2143 c7 -3 16 -2 19 1 4 3 -2 6 -13 5 -11 0 -14 -3 -6 -6z"/>
<path d="M8413 2143 c9 -2 23 -2 30 0 6 3 -1 5 -18 5 -16 0 -22 -2 -12 -5z"/>
<path d="M10108 2143 c7 -3 16 -2 19 1 4 3 -2 6 -13 5 -11 0 -14 -3 -6 -6z"/>
<path d="M10233 2143 c15 -2 39 -2 55 0 15 2 2 4 -28 4 -30 0 -43 -2 -27 -4z"/>
<path d="M10368 2143 c7 -3 16 -2 19 1 4 3 -2 6 -13 5 -11 0 -14 -3 -6 -6z"/>
<path d="M10438 2143 c23 -2 59 -2 80 0 20 2 1 4 -43 4 -44 0 -61 -2 -37 -4z"/>
</g>
</svg>
