<?xml version="1.0" standalone="no"?>
<!DOCTYPE svg PUBLIC "-//W3C//DTD SVG 20010904//EN"
 "http://www.w3.org/TR/2001/REC-SVG-20010904/DTD/svg10.dtd">
<svg version="1.0" xmlns="http://www.w3.org/2000/svg"
 width="803.000000pt" height="815.000000pt" viewBox="0 0 803.000000 815.000000"
 preserveAspectRatio="xMidYMid meet">

<g transform="translate(0.000000,815.000000) scale(0.100000,-0.100000)"
fill="#000000" stroke="none">
<path d="M3714 7621 c-21 -13 -105 -128 -251 -343 -121 -177 -277 -406 -346
-508 -69 -102 -187 -275 -261 -385 -74 -110 -185 -274 -246 -365 -108 -159
-848 -1262 -1187 -1769 -90 -134 -168 -261 -174 -282 -15 -50 -4 -87 36 -123
19 -17 216 -146 437 -288 222 -141 437 -278 478 -305 41 -26 219 -138 395
-248 176 -111 483 -304 682 -430 442 -281 483 -305 508 -305 30 0 61 18 401
237 170 110 449 289 619 398 171 109 339 217 375 241 36 23 254 163 485 311
709 455 655 416 655 485 0 32 -54 117 -413 655 -466 697 -775 1154 -1110 1643
-364 530 -566 825 -662 965 -83 121 -115 167 -238 343 -65 94 -116 114 -183
73z m-24 -1368 l0 -1028 -108 -56 c-186 -97 -1590 -848 -1752 -937 -263 -144
-301 -164 -304 -161 -2 2 42 69 97 149 55 80 306 453 557 830 252 377 530 791
617 920 509 749 686 1011 781 1153 58 86 107 157 109 157 1 0 3 -462 3 -1027z
m362 752 c709 -1026 1995 -2931 1985 -2941 -3 -3 -88 39 -189 94 -100 54 -295
159 -433 232 -382 203 -793 424 -960 515 -82 45 -248 135 -367 199 l-218 118
0 1020 c0 991 1 1020 18 997 10 -13 84 -118 164 -234z m-362 -2851 c0 -821 -1
-866 -17 -859 -83 34 -1586 526 -1917 628 l-78 24 73 40 c41 22 304 163 584
314 281 150 695 373 920 495 226 122 416 222 423 223 9 1 12 -178 12 -865z
m406 745 c120 -66 387 -211 593 -321 206 -110 523 -280 705 -377 182 -98 366
-197 410 -219 l78 -42 -28 -11 c-16 -6 -159 -55 -319 -109 -159 -54 -447 -152
-640 -218 -192 -66 -451 -155 -575 -197 -124 -42 -276 -94 -337 -116 l-113
-38 0 884 c0 487 1 885 3 885 2 0 102 -54 223 -121z m-2288 -1169 c9 -5 177
-61 374 -125 196 -63 615 -203 932 -311 l576 -197 0 -283 c0 -156 -3 -284 -7
-284 -3 0 -14 6 -22 13 -9 8 -63 43 -121 79 -153 94 -1440 900 -1610 1007 -80
51 -146 96 -148 101 -5 13 4 13 26 0z m3878 -53 c-10 -7 -48 -31 -85 -53 -36
-23 -280 -178 -541 -345 -261 -166 -531 -338 -600 -382 -69 -44 -201 -129
-295 -190 -93 -60 -197 -127 -230 -148 l-60 -39 -3 267 c-1 147 1 270 5 274 5
3 82 32 173 62 153 52 937 322 1409 486 112 39 206 73 209 76 3 3 12 5 21 4
13 0 13 -2 -3 -12z"/>
<path d="M730 1835 c0 -8 145 -287 475 -915 l71 -135 125 -3 125 -3 154 283
c84 156 168 310 185 343 18 33 73 134 122 225 50 91 95 175 102 188 l12 22
-114 0 -113 0 -94 -177 c-247 -471 -373 -703 -380 -703 -4 0 -10 8 -13 18 -3
9 -103 206 -221 437 l-215 420 -110 3 c-61 1 -111 0 -111 -3z"/>
<path d="M2330 1310 l0 -531 105 2 105 1 0 529 0 529 -105 0 -105 0 0 -530z"/>
<path d="M3049 1821 c-110 -36 -190 -112 -226 -215 -15 -44 -18 -87 -18 -301
l0 -250 28 -61 c51 -110 148 -181 278 -204 44 -8 163 -10 345 -8 258 3 284 5
338 26 82 30 130 64 170 120 60 81 68 134 64 402 -3 235 -3 235 -32 297 -35
76 -104 144 -184 181 l-57 27 -325 2 c-292 2 -331 1 -381 -16z m642 -173 c53
-18 87 -47 109 -96 20 -42 21 -58 18 -257 l-3 -213 -31 -38 c-60 -75 -77 -79
-364 -82 -249 -3 -256 -2 -300 20 -26 13 -57 41 -75 66 l-30 44 -3 206 -3 207
28 55 c22 42 38 60 72 77 43 22 53 23 296 23 167 0 264 -4 286 -12z"/>
<path d="M4290 1310 l0 -530 100 0 100 0 0 190 0 190 233 0 232 0 64 -108 c36
-59 88 -144 118 -189 l53 -83 116 0 c87 0 115 3 112 13 -2 6 -56 91 -120 188
-65 97 -118 181 -118 188 0 6 6 11 13 11 21 0 90 41 125 73 18 18 45 56 60 87
23 48 26 68 27 150 0 81 -4 103 -26 150 -35 74 -67 111 -129 144 -98 53 -121
56 -557 56 l-403 0 0 -530z m820 328 c62 -32 82 -73 78 -162 -4 -64 -6 -70
-40 -101 -20 -19 -53 -38 -75 -44 -22 -7 -148 -11 -310 -11 l-273 0 0 170 0
170 288 0 c279 0 289 -1 332 -22z"/>
<path d="M5990 1583 c-74 -142 -168 -320 -209 -398 -40 -77 -104 -198 -142
-268 -38 -71 -69 -130 -69 -133 0 -2 47 -4 104 -4 71 0 107 4 114 13 5 6 40
69 77 140 l67 127 239 0 239 0 0 85 0 85 -195 0 -195 0 107 215 c59 118 111
215 115 215 9 0 50 -76 213 -395 229 -450 240 -470 250 -477 12 -9 215 -10
215 -1 0 8 -282 554 -494 955 l-51 98 -125 0 -125 0 -135 -257z"/>
</g>
</svg>
